# xmcd
#
# Track frame offsets: 
#        150
#        11779
#        22951
#        33713
#        45609
#        56841
#        68120
#        83195
#        94808
#        105729
#        118285
#        130828
#        142132
#        152502
#        164297
#        175367
#        188282
#        197675
#        209205
#        221490
#        231151
#        241225
#        251839
#        265906
#        276191
#
# Disc length: 3832 seconds
#
# Revision: 0
# Processed by: cddbd v1.5.2PL0 Copyright (c) Steve Scherf et al.
# Submitted via: ExactAudioCopyFreeDBPlugin 1.0
#
DISCID=750ef619
DTITLE=Lefty Frizzell - Selected Sides 1950-1959 [CD4] 1957-1959
DYEAR=2010
DGENRE=Country
TTITLE0=Sick Sober And Sorry
TTITLE1=No One To Talk To But The Blues
TTITLE2=Is It Only That You're Lonely
TTITLE3=Tell Me Dear
TTITLE4=The Torch Within My Heart
TTITLE5=Time Out For The Blues
TTITLE6=Why Should I Be Lonely
TTITLE7=Signed, Sealed And Delivered
TTITLE8=Nobody Knows But Me
TTITLE9=Silence
TTITLE10=Release Me
TTITLE11=You're Humbuggin' Me
TTITLE12=She's Gone
TTITLE13=Cigarettes And Coffee Blues
TTITLE14=My Bucket's Got A Hole In It
TTITLE15=I Love You A Thousand Ways
TTITLE16=If You've Got The Money, I've Got The Time
TTITLE17=Mom And Dad's Waltz
TTITLE18=I Want To Be With You Always
TTITLE19=Always Late (With Your Kisses)
TTITLE20=If You're Ever Lonely Darling
TTITLE21=Knock Again, True Love
TTITLE22=The Long Black Veil
TTITLE23=Farther Than My Eyes Can See
TTITLE24=My Blues Will Pass
EXTD=
EXTT0=
EXTT1=
EXTT2=
EXTT3=
EXTT4=
EXTT5=
EXTT6=
EXTT7=
EXTT8=
EXTT9=
EXTT10=
EXTT11=
EXTT12=
EXTT13=
EXTT14=
EXTT15=
EXTT16=
EXTT17=
EXTT18=
EXTT19=
EXTT20=
EXTT21=
EXTT22=
EXTT23=
EXTT24=
PLAYORDER=
